/* XPM */
static char *dropboxstatus_busy2[] = {
/* columns rows colors chars-per-pixel */
"18 18 104 2 ",
"   c #004A39F069CA",
".  c #025A3AC9698D",
"X  c #00003EB9740B",
"o  c #000042AF7A68",
"O  c #000043647B62",
"+  c #34CE59727725",
"@  c #4F72618C706D",
"#  c #63CA63CA63CA",
"$  c #641F641F641F",
"%  c #662F662F662F",
"&  c #677367736773",
"*  c #77D777D777D7",
"=  c #7A907A907A90",
"-  c #7C567C567C56",
";  c #7F827F827F82",
":  c #0D754D308262",
">  c #4AF57B3EA215",
",  c #4AE37B33A24A",
"<  c #04A06D80C3CA",
"1  c #178E7A58CB0B",
"2  c #10E27803CCF7",
"3  c #19F07B8FCB77",
"4  c #09AF7B01D7EB",
"5  c #12197D13D527",
"6  c #00007E7EE5E5",
"7  c #5BCE85B5A7D5",
"8  c #638E872FA3DB",
"9  c #69418BC3A7AF",
"0  c #1D8E83F3D7B7",
"q  c #1AE883F2D957",
"w  c #0ACA83F9E6FD",
"e  c #13F7889FE7F1",
"r  c #2C4C928AE5C5",
"t  c #2E6A9388E5C0",
"y  c #36929789E717",
"u  c #36AC9A44EB89",
"i  c #43659F4FEA8D",
"p  c #4B2AA307EAF4",
"a  c #4C4CA3EBEB4A",
"s  c #564EAA5AEEBE",
"d  c #5840AB22EEBE",
"f  c #58D0AB6BEEBE",
"g  c #6FD5B714F124",
"h  c #779CBB05F1F1",
"j  c #803880388038",
"k  c #82E782E782E7",
"l  c #84C184C184C1",
"z  c #8A6E8A6E8A6E",
"x  c #8BAA8BAA8BAA",
"c  c #8E9F8E9F8E9F",
"v  c #8F708F708F70",
"b  c #9085914D914D",
"n  c #92B392B392B3",
"m  c #946994699469",
"M  c #96B197589758",
"N  c #97F197F197F1",
"B  c #983098309830",
"V  c #88C79EB8B067",
"C  c #95B5A643B3A8",
"Z  c #A31EA31EA31E",
"A  c #A35AA35AA35A",
"S  c #A57CA57CA57C",
"D  c #B0B4B0B4B0B4",
"F  c #B8E7B8E7B8E7",
"G  c #B9B0B9B0B9B0",
"H  c #BBEEBC84BCCF",
"J  c #ACBCB88FC220",
"K  c #811FBD09EE54",
"L  c #83D9C110F352",
"P  c #8A3DC421F3B4",
"I  c #9B33CD14F59D",
"U  c #A803D26BF53E",
"Y  c #C3CAC3CAC3CA",
"T  c #C52FC52FC52F",
"R  c #C57AC57AC57A",
"E  c #C61AC685C6D6",
"W  c #C8EAC8EAC8EA",
"Q  c #CDC9CDC9CDC9",
"!  c #D1A6D1A6D1A6",
"~  c #D32FD35FD37F",
"^  c #D9CFD9CFD9CF",
"/  c #DDC3DDC3DDC3",
"(  c #DEEFDEEFDEEF",
")  c #E029E029E029",
"_  c #E0E3E0E3E0E3",
"`  c #E24BE24BE24B",
"'  c #E265E265E265",
"]  c #E33EE37EE3A8",
"[  c #E395E395E395",
"{  c #E6A1E6A1E6A1",
"}  c #E8C8E8C8E8C8",
"|  c #EA1AEA1AEA1A",
" . c #ED64ED64ED64",
".. c #F108F108F108",
"X. c #F5EBF5EBF5EB",
"o. c #F6CDF6CDF6CD",
"O. c #F7D4F7D4F7D4",
"+. c #FB0AFB0AFB0A",
"@. c #FBA4FBA4FBA4",
"#. c #FD20FD20FD20",
"$. c #FDEEFDEEFDEE",
"%. c #FE84FE84FE84",
"&. c #FFF6FFF6FFF6",
"*. c None",
/* pixels */
"*.*.*.*.*.*.*.*.*.*.*.*.*.*.*.*.*.*.",
"*.*.*.*.; W % *.*.*.*.& W ; *.*.*.*.",
"*.*.*.G o.&.| z *.*.z | &.o.G *.*.*.",
"*.m { &.&.&.&.o.Z Z o.&.&.&.&.{ b *.",
"*.[ &.&.&.&.&.! # % Q &.&.&.&.&.[ *.",
"*.*.Y &.&.[ v *.*.*.*.v [ &.&.T *.*.",
"*.*.*.S F *.*.*.*.*.*.*.*.G Z *.*.*.",
"*.*.*.! ^ = *.*.*.*.*.*.= ^ ! *.*.*.",
"*.b  .&.&.+.Y *.*.*.*.T +.&.&. .b *.",
"*.( &.&.&.&.&.o.m B o.[ C , , V H *.",
"*.*.D o.&.&.&.[ k ; T 7 0 a U q : *.",
"*.*.*.= ( +.Q v [ ( @ 3 P f L e 4 *.",
"*.*.*.*.* k m  .&.&.8 r g 6 6 u i o ",
"*.*.*.*.&.^ &.&.&.&.9 r s 6 6 f p o ",
"*.*.*.*.k ( &.&.&.&.J 3 w I h P 5 *.",
"*.*.*.*.*.*.S | &.&.! + < K y 2 X *.",
"*.*.*.*.*.*.*.*.G G *.*.*.. . *.*.*.",
"*.*.*.*.*.*.*.*.*.*.*.*.*.*.*.*.*.*."
};
