#define dropboxstatus-x_width 18
#define dropboxstatus-x_height 18
static char dropboxstatus-x_bits[] = {
  0xFF, 0xFF, 0x03, 0xCF, 0xEF, 0x03, 0x07, 0x83, 0x03, 0x01, 0x02, 0x02, 
  0x01, 0x02, 0x02, 0xC3, 0x0F, 0x03, 0xE7, 0x9F, 0x03, 0xC7, 0x8F, 0x03, 
  0x81, 0x07, 0x02, 0x01, 0x62, 0x02, 0x03, 0x61, 0x03, 0x07, 0x6C, 0x03, 
  0x1F, 0x18, 0x03, 0x0F, 0x98, 0x03, 0x0F, 0x68, 0x03, 0x3F, 0xD8, 0x03, 
  0xFF, 0xFC, 0x03, 0xFF, 0xFF, 0x03, };
