/* XPM */
static char *dropboxstatus_logo[] = {
/* columns rows colors chars-per-pixel */
"18 18 62 1 ",
"  c #63CA63CA63CA",
". c #641F641F641F",
"X c #662F662F662F",
"o c #677367736773",
"O c #6C7F6C7F6C7F",
"+ c #77D777D777D7",
"@ c #7A907A907A90",
"# c #7B9B7B9B7B9B",
"$ c #7C567C567C56",
"% c #7F827F827F82",
"& c #806E806E806E",
"* c #82E782E782E7",
"= c #84C684C684C6",
"- c #8A6E8A6E8A6E",
"; c #8BAA8BAA8BAA",
": c #8CFA8CFA8CFA",
"> c #8E9F8E9F8E9F",
", c #8F708F708F70",
"< c #9085914D914D",
"1 c #92B392B392B3",
"2 c #946994699469",
"3 c #96B197589758",
"4 c #97F197F197F1",
"5 c #988A988A988A",
"6 c #A31EA31EA31E",
"7 c #A35AA35AA35A",
"8 c #A59EA59EA59E",
"9 c #AFD7AFD7AFD7",
"0 c #B0B4B0B4B0B4",
"q c #B8E7B8E7B8E7",
"w c #B9B0B9B0B9B0",
"e c #C3CAC3CAC3CA",
"r c #C52FC52FC52F",
"t c #C57AC57AC57A",
"y c #C8EAC8EAC8EA",
"u c #CDDECDDECDDE",
"i c #D1A6D1A6D1A6",
"p c #D9B3D9B3D9B3",
"a c #DC4DDC4DDC4D",
"s c #DDC3DDC3DDC3",
"d c #DEFEDEFEDEFE",
"f c #E008E008E008",
"g c #E0E3E0E3E0E3",
"h c #E24BE24BE24B",
"j c #E2A1E2A1E2A1",
"k c #E395E395E395",
"l c #E6A1E6A1E6A1",
"z c #E8B5E8B5E8B5",
"x c #EA1AEA1AEA1A",
"c c #ED64ED64ED64",
"v c #F108F108F108",
"b c #F192F192F192",
"n c #F5B4F5B4F5B4",
"m c #F6CDF6CDF6CD",
"M c #F7D4F7D4F7D4",
"N c #FB25FB25FB25",
"B c #FBB1FBB1FBB1",
"V c #FD20FD20FD20",
"C c #FE1AFE1AFE1A",
"Z c #FE84FE84FE84",
"A c #FFF4FFF4FFF4",
"S c None",
/* pixels */
"SSSSSSSSSSSSSSSSSS",
"SSSS%yXSSSSoy%SSSS",
"SSSwmAx-SS-xAmwSSS",
"S2lAAAAm66mAAAAl<S",
"SkAAAAAi XuAAAAAkS",
"SSeAAk,SSSS,kAArSS",
"SSS8qSSSSSSSSw6SSS",
"SSSip@SSSSSS@piSSS",
"S<cAANeSSSSeNAAc<S",
"SsAAAAAm25mAAAAAsS",
"SS9mAAAk&%kAAAm9SS",
"SSS%sNu-kk-uNs@SSS",
"SSSS@&4bAAb5=OSSSS",
"SSSSNpNAAAANpNSSSS",
"SSSS&kAAAAAAs&SSSS",
"SSSSSS8xAAx8SSSSSS",
"SSSSSSSSwwSSSSSSSS",
"SSSSSSSSSSSSSSSSSS"
};
