#define dropboxstatus-logo_width 18
#define dropboxstatus-logo_height 18
static char dropboxstatus-logo_bits[] = {
  0xFF, 0xFF, 0x03, 0xCF, 0xE7, 0x03, 0x87, 0x83, 0x03, 0x01, 0x02, 0x02, 
  0x01, 0x03, 0x02, 0x83, 0x07, 0x03, 0xE7, 0x9F, 0x03, 0xC7, 0x8F, 0x03, 
  0x81, 0x07, 0x02, 0x01, 0x01, 0x02, 0x03, 0x02, 0x03, 0x07, 0x80, 0x03, 
  0x1F, 0xE0, 0x03, 0x0F, 0xC0, 0x03, 0x0F, 0xE0, 0x03, 0x3F, 0xF0, 0x03, 
  0xFF, 0xFC, 0x03, 0xFF, 0xFF, 0x03, };
