#define dropboxstatus-busy2_width 18
#define dropboxstatus-busy2_height 18
static char dropboxstatus-busy2_bits[] = {
  0xFF, 0xFF, 0x03, 0xCF, 0xE7, 0x03, 0x07, 0x83, 0x03, 0x01, 0x02, 0x02, 
  0x01, 0x02, 0x02, 0xC3, 0x0F, 0x03, 0xE7, 0x9F, 0x03, 0xC7, 0x8F, 0x03, 
  0x81, 0x07, 0x02, 0x01, 0x42, 0x02, 0x03, 0x1A, 0x03, 0x07, 0x84, 0x03, 
  0x2F, 0xA8, 0x02, 0x0F, 0x64, 0x02, 0x0F, 0x18, 0x03, 0x3F, 0x90, 0x03, 
  0xFF, 0xFC, 0x03, 0xFF, 0xFF, 0x03, };
