/* XPM */
static char *dropboxstatus_idle[] = {
/* columns rows colors chars-per-pixel */
"18 18 105 2 ",
"   c #16C852C5184C",
".  c #16F853661879",
"X  c #17965BDC1A04",
"o  c #1A8D60771C51",
"O  c #1ACE61541C8F",
"+  c #26696A402922",
"@  c #43C969D54501",
"#  c #56F169D75784",
"$  c #63CA63CA63CA",
"%  c #641F641F641F",
"&  c #662F662F662F",
"*  c #677367736773",
"=  c #77D777D777D7",
"-  c #7A907A907A90",
";  c #7C567C567C56",
":  c #7F827F827F82",
">  c #2A9C9B5D2F80",
",  c #2BD4A17630CF",
"<  c #2DBCA7E632D2",
"1  c #3478A2AD3927",
"2  c #3586ACDC3AC1",
"3  c #38EDACB03DF2",
"4  c #3158B2FE36A1",
"5  c #319CB48B3746",
"6  c #3464B3FB39D1",
"7  c #3580B3DF3A84",
"8  c #32FFB57138D7",
"9  c #323FB6BA3844",
"0  c #349CB78F3A72",
"q  c #355FB7D73B2F",
"w  c #3DF9A5CC4263",
"e  c #5BC18F255DC9",
"r  c #41F5BBF446D4",
"t  c #4459B26A48EF",
"y  c #4393B9A14890",
"u  c #4313BC78485B",
"i  c #4943BD194DC3",
"p  c #4868BE6E4D4D",
"a  c #5E3690486030",
"s  c #6CDD980B6ED2",
"d  c #71DE96B67333",
"f  c #770F9AFA7878",
"g  c #4D98C0695283",
"h  c #6692C93A6AB3",
"j  c #7D14D141806E",
"k  c #803880388038",
"l  c #82E782E782E7",
"z  c #84C184C184C1",
"x  c #8A6E8A6E8A6E",
"c  c #8BAA8BAA8BAA",
"v  c #8E9F8E9F8E9F",
"b  c #8F708F708F70",
"n  c #9085914D914D",
"m  c #92B392B392B3",
"M  c #946994699469",
"N  c #96B197589758",
"B  c #97F197F197F1",
"V  c #983098309830",
"C  c #91BAA84D928D",
"Z  c #9C68AD899D02",
"A  c #A31EA31EA31E",
"S  c #A35AA35AA35A",
"D  c #A57CA57CA57C",
"F  c #B0B4B0B4B0B4",
"G  c #B185BDC6B1F3",
"H  c #B8E7B8E7B8E7",
"J  c #B9B0B9B0B9B0",
"K  c #BC39BCAABC39",
"L  c #A424DF1EA5A5",
"P  c #A969E0F0ABAB",
"I  c #BC9CE7EFBE35",
"U  c #BD0DE822BE7D",
"Y  c #C3CAC3CAC3CA",
"T  c #C52FC52FC52F",
"R  c #C57AC57AC57A",
"E  c #C635C6BBC66A",
"W  c #C8EAC8EAC8EA",
"Q  c #CDC9CDC9CDC9",
"!  c #D1A6D1A6D1A6",
"~  c #D33FD36FD33F",
"^  c #D9CFD9CFD9CF",
"/  c #DDC3DDC3DDC3",
"(  c #DEEFDEEFDEEF",
")  c #E029E029E029",
"_  c #C169E969C2EA",
"`  c #E0E3E0E3E0E3",
"'  c #E24BE24BE24B",
"]  c #E265E265E265",
"[  c #E353E393E353",
"{  c #E395E395E395",
"}  c #E6A1E6A1E6A1",
"|  c #E8C8E8C8E8C8",
" . c #EA1AEA1AEA1A",
".. c #ED64ED64ED64",
"X. c #F108F108F108",
"o. c #F5EBF5EBF5EB",
"O. c #F6CDF6CDF6CD",
"+. c #F7D4F7D4F7D4",
"@. c #FB0AFB0AFB0A",
"#. c #FBA4FBA4FBA4",
"$. c #FD20FD20FD20",
"%. c #FDEEFDEEFDEE",
"&. c #FE84FE84FE84",
"*. c #FFF6FFF6FFF6",
"=. c None",
/* pixels */
"=.=.=.=.=.=.=.=.=.=.=.=.=.=.=.=.=.=.",
"=.=.=.=.: W & =.=.=.=.* W : =.=.=.=.",
"=.=.=.J O.*. .x =.=.x  .*.O.J =.=.=.",
"=.M } *.*.*.*.O.A A O.*.*.*.*.} n =.",
"=.{ *.*.*.*.*.! $ & Q *.*.*.*.*.{ =.",
"=.=.Y *.*.{ b =.=.=.=.b { *.*.T =.=.",
"=.=.=.D H =.=.=.=.=.=.=.=.J A =.=.=.",
"=.=.=.! ^ - =.=.=.=.=.=.- ^ ! =.=.=.",
"=.n ..*.*.@.Y =.=.=.=.T @.*.*...n =.",
"=.( *.*.*.*.*.O.M V O.{ Z a e C K =.",
"=.=.F O.*.*.*.{ l : T s 3 8 8 2 + =.",
"=.=.=.- ( @.Q b { ( # 1 8 8 q h t =.",
"=.=.=.=.= l M ..*.*.d q r 5 h _ i o ",
"=.=.=.=.*.^ *.*.*.*.f y I P _ g 5 o ",
"=.=.=.=.l ( *.*.*.*.G w i P g 9 < =.",
"=.=.=.=.=.=.D | *.*.~ @ > q 5 , X =.",
"=.=.=.=.=.=.=.=.J J =.=.=.    =.=.=.",
"=.=.=.=.=.=.=.=.=.=.=.=.=.=.=.=.=.=."
};
