#define ac_width 8
#define ac_height 8
static unsigned char ac_bits[] = {
 0x00, 0x07, 0x0F, 0x09, 0x90, 0xF0, 0xE0, 0x00 };
