#define volume0_width 13
#define volume0_height 9
static unsigned char volume0_bits[] = {
   0x10, 0x00, 0x18, 0x00, 0x1c, 0x00, 0x1f, 0x00, 0x1f, 0x00, 0x1f, 0x00,
   0x1c, 0x00, 0x18, 0x00, 0x10, 0x00 };
