#define volume75_width 13
#define volume75_height 9
static unsigned char volume75_bits[] = {
   0x10, 0x00, 0x18, 0x04, 0x1c, 0x05, 0x5f, 0x05, 0x5f, 0x05, 0x5f, 0x05,
   0x1c, 0x05, 0x18, 0x04, 0x10, 0x00 };
