/* XPM */
static char *dropboxstatus_x[] = {
/* columns rows colors chars-per-pixel */
"18 18 102 2 ",
"   c #6A760FC10F40",
".  c #763210080F87",
"X  c #7B9B124A11B4",
"o  c #7CB8127511DF",
"O  c #78193F393F72",
"+  c #710254715460",
"@  c #63CA63CA63CA",
"#  c #641F641F641F",
"$  c #662F662F662F",
"%  c #677367736773",
"&  c #77D777D777D7",
"*  c #7A907A907A90",
"=  c #7C567C567C56",
"-  c #7F827F827F82",
";  c #83F41EBF1E3C",
":  c #C5DF1DCF1DB0",
">  c #CDF81ED01E99",
",  c #CC8C2896288A",
"<  c #D66A20AB203F",
"1  c #D9EB216D20FE",
"2  c #DA4728CA28DA",
"3  c #D8B72CB32CE2",
"4  c #CD2932913295",
"5  c #E3FD217C213F",
"6  c #E43022C32283",
"7  c #E64521C821AA",
"8  c #E6A721D721B8",
"9  c #E6E4233D2339",
"0  c #E4A424842484",
"q  c #A2BE55C555A9",
"w  c #A36358485848",
"e  c #A89367FD67AC",
"r  c #A4CB6D9B6D4B",
"t  c #A8A072D272D2",
"y  c #EC7644EC44EC",
"u  c #ED1449B149B1",
"i  c #ED644E164E16",
"p  c #EE2753FE53FE",
"a  c #EE7958705870",
"s  c #EF365E165E16",
"d  c #F0966C7B6CB1",
"f  c #F1397219724F",
"g  c #F18B75D675FB",
"h  c #F2797DEE7E13",
"j  c #803880388038",
"k  c #82E782E782E7",
"l  c #84C184C184C1",
"z  c #8A6E8A6E8A6E",
"x  c #8BAA8BAA8BAA",
"c  c #8E9F8E9F8E9F",
"v  c #8F708F708F70",
"b  c #9085914D914D",
"n  c #92B392B392B3",
"m  c #946994699469",
"M  c #96B197589758",
"N  c #97F197F197F1",
"B  c #983098309830",
"V  c #B0D08F2D8F42",
"C  c #B3F59A679A6E",
"Z  c #A31EA31EA31E",
"A  c #A35AA35AA35A",
"S  c #A57CA57CA57C",
"D  c #B0B4B0B4B0B4",
"F  c #B8E7B8E7B8E7",
"G  c #B9B0B9B0B9B0",
"H  c #BCCFBC39BC39",
"J  c #C25DB016B01B",
"K  c #C3CAC3CAC3CA",
"L  c #C52FC52FC52F",
"P  c #C57AC57AC57A",
"I  c #C6D6C64FC64F",
"U  c #C8EAC8EAC8EA",
"Y  c #CDC9CDC9CDC9",
"T  c #D1A6D1A6D1A6",
"R  c #D37FD32FD32F",
"E  c #D9CFD9CFD9CF",
"W  c #DDC3DDC3DDC3",
"Q  c #DEEFDEEFDEEF",
"!  c #E029E029E029",
"~  c #FA3DC900C900",
"^  c #FA49C9A9C9A9",
"/  c #FA90CBE7CBE7",
"(  c #E0E3E0E3E0E3",
")  c #E24BE24BE24B",
"_  c #E265E265E265",
"`  c #E3A8E33EE33E",
"'  c #E395E395E395",
"]  c #E6A1E6A1E6A1",
"[  c #E8C8E8C8E8C8",
"{  c #EA1AEA1AEA1A",
"}  c #ED64ED64ED64",
"|  c #F108F108F108",
" . c #F5EBF5EBF5EB",
".. c #F6CDF6CDF6CD",
"X. c #F7D4F7D4F7D4",
"o. c #FB0AFB0AFB0A",
"O. c #FBA4FBA4FBA4",
"+. c #FD20FD20FD20",
"@. c #FDEEFDEEFDEE",
"#. c #FE84FE84FE84",
"$. c #FFF6FFF6FFF6",
"%. c None",
/* pixels */
"%.%.%.%.%.%.%.%.%.%.%.%.%.%.%.%.%.%.",
"%.%.%.%.- U $ %.%.%.%.% U - %.%.%.%.",
"%.%.%.G ..$.{ z %.%.z { $...G %.%.%.",
"%.m ] $.$.$.$...Z Z ..$.$.$.$.] b %.",
"%.' $.$.$.$.$.T @ $ Y $.$.$.$.$.' %.",
"%.%.K $.$.' v %.%.%.%.v ' $.$.L %.%.",
"%.%.%.S F %.%.%.%.%.%.%.%.G Z %.%.%.",
"%.%.%.T E * %.%.%.%.%.%.* E T %.%.%.",
"%.b } $.$.o.K %.%.%.%.L o.$.$.} b %.",
"%.Q $.$.$.$.$...m B ..' C w q V H %.",
"%.%.D ..$.$.$.' k - L e 3 9 9 2 ; %.",
"%.%.%.* Q o.Y v ' Q + , g s a h 1 %.",
"%.%.%.%.& k m } $.$.r 5 y ~ ~ p 9 X ",
"%.%.%.%.$.E $.$.$.$.t 0 i ~ ~ s 9 X ",
"%.%.%.%.k Q $.$.$.$.J 4 d u y g < %.",
"%.%.%.%.%.%.S [ $.$.T O : 5 9 > . %.",
"%.%.%.%.%.%.%.%.G G %.%.%.    %.%.%.",
"%.%.%.%.%.%.%.%.%.%.%.%.%.%.%.%.%.%."
};
