#define dropboxstatus-blank_width 16
#define dropboxstatus-blank_height 16
static char dropboxstatus-blank_bits[] = {
  0xFF, 0x0C, 0xFF, 0x1E, 0xCF, 0x73, 0x03, 0x81, 0x13, 0x84, 0x03, 0x40, 
  0x0F, 0x30, 0x0F, 0x40, 0x33, 0x90, 0x03, 0xC1, 0x1F, 0xC0, 0x0F, 0xE9, 
  0x1F, 0x9B, 0x3F, 0xC3, 0xFF, 0xF2, 0xFF, 0xFF, };
