#define dropboxstatus-idle_width 18
#define dropboxstatus-idle_height 18
static char dropboxstatus-idle_bits[] = {
  0xFF, 0xFF, 0x03, 0xCF, 0xE7, 0x03, 0x07, 0x87, 0x03, 0x01, 0x00, 0x02, 
  0x01, 0x01, 0x02, 0x83, 0x0F, 0x03, 0xE7, 0x9F, 0x03, 0xC7, 0x0F, 0x03, 
  0x01, 0x07, 0x02, 0x01, 0x01, 0x02, 0x03, 0x80, 0x03, 0x07, 0x3C, 0x02, 
  0x4F, 0x08, 0x02, 0x0F, 0x00, 0x02, 0x0F, 0x40, 0x02, 0x3F, 0x98, 0x03, 
  0xFF, 0xFC, 0x03, 0xFF, 0xFF, 0x03, };
